<svg width="1920" height="1080" viewBox="0 0 1920 1080" fill="none" xmlns="http://www.w3.org/2000/svg">
<g clip-path="url(#clip0)">
<path d="M266 765C158.974 589.36 -329.5 865 -329.5 865L-317 1217L1211.5 1233.5C1211.5 1233.5 1293 1058.5 1176.5 977.5C1060 896.499 903.5 892 747 921C590.5 949.999 373.026 940.639 266 765Z" fill="#BE1E2D" fill-opacity="0.75"/>
<path d="M249.5 786.53C142.474 610.891 -346 886.53 -346 886.53L-333.5 1238.53L1195 1255.03C1195 1255.03 1276.5 1080.03 1160 999.03C1043.5 918.03 887 913.531 730.5 942.53C574 971.53 356.526 962.169 249.5 786.53Z" fill="#BE1E2D"/>
<path d="M443 221.5C157.5 111.5 68 -176.5 68 -176.5H2101L2186.5 713C2186.5 713 2003 713 1763.5 636C1524 559 1489 361 1155.5 277.5C822 194 728.5 331.5 443 221.5Z" fill="#BE1E2D"/>
<path d="M418 236C132.5 126 43 -162 43 -162H2076L2161.5 727.5C2161.5 727.5 1978 727.5 1738.5 650.5C1499 573.5 1464 375.5 1130.5 292C797 208.5 703.5 346 418 236Z" fill="#BE1E2D" fill-opacity="0.5"/>
</g>
<defs>
<clipPath id="clip0">
<rect width="1920" height="1080" fill="white" transform="matrix(-1 0 0 1 1920 0)"/>
</clipPath>
</defs>
</svg>
