<svg width="1920" height="1080" viewBox="0 0 1920 1080" fill="none" xmlns="http://www.w3.org/2000/svg">
<g clip-path="url(#clip0)">
<path d="M1028.5 707.5C764 695.82 43.5 214 43.5 214L-188 316L-131.5 651.5C-131.5 651.5 1549.5 1080.5 1730.5 966C1911.5 851.5 778.5 479 982.5 389C1186.5 299 1841 669.5 2043 345C2245 20.5 2245 1224 2245 1224L2286.5 937L2191 -115C2191 -115 2005.5 185 1157.5 251.5C309.5 318 1293 719.18 1028.5 707.5Z" fill="#579DD0" fill-opacity="0.25"/>
<path d="M1011.5 678.5C747 666.82 26.5 185 26.5 185L-205 287L-148.5 622.5C-148.5 622.5 1532.5 1051.5 1713.5 937C1894.5 822.5 761.5 450 965.5 360C1169.5 270 1824 640.5 2026 316C2228 -8.5 2228 1195 2228 1195L2269.5 908L2174 -144C2174 -144 1988.5 156 1140.5 222.5C292.5 289 1276 690.18 1011.5 678.5Z" fill="#579DD0" fill-opacity="0.5"/>
<path d="M979 654C714.5 642.32 -6 160.5 -6 160.5L-237.5 262.5L-181 598C-181 598 1500 1027 1681 912.5C1862 798 729 425.5 933 335.5C1137 245.5 1791.5 616 1993.5 291.5C2195.5 -33 2195.5 1170.5 2195.5 1170.5L2237 883.5L2141.5 -168.5C2141.5 -168.5 1956 131.5 1108 198C260 264.5 1243.5 665.68 979 654Z" fill="#579DD0"/>
</g>
<defs>
<clipPath id="clip0">
<rect width="1920" height="1080" fill="white"/>
</clipPath>
</defs>
</svg>
