<svg width="1920" height="1080" viewBox="0 0 1920 1080" fill="none" xmlns="http://www.w3.org/2000/svg">
<g clip-path="url(#clip0)">
<path d="M-468.233 836.791L1933.88 502.85L-56.4066 1060.77L-468.233 836.791Z" fill="#BE1E2D" fill-opacity="0.75"/>
<path d="M-419.809 798.565L1987.37 503.354L-11.6431 1029.15L-419.809 798.565Z" fill="#BE1E2D" fill-opacity="0.5"/>
<path d="M-435.259 895.7L1961.07 522.465L-19.8202 1112.91L-435.259 895.7Z" fill="#BE1E2D" fill-opacity="0.75"/>
<path d="M-557 889L2080 483L-96.5 1105.5L-557 889Z" fill="#BE1E2D"/>
<path d="M2184.31 125.825L-197.383 583.24L1761.47 -76.6123L2184.31 125.825Z" fill="#BE1E2D" fill-opacity="0.75"/>
<path d="M2137.92 166.498L-250.829 585.495L1718.4 -42.7228L2137.92 166.498Z" fill="#BE1E2D" fill-opacity="0.5"/>
<path d="M2148.34 68.6946L-225.541 565.054L1722.25 -126.79L2148.34 68.6946Z" fill="#BE1E2D" fill-opacity="0.75"/>
<path d="M2270.26 69.1057L-342.282 610.601L1799.21 -123.35L2270.26 69.1057Z" fill="#BE1E2D"/>
</g>
<defs>
<clipPath id="clip0">
<rect width="1920" height="1080" fill="white"/>
</clipPath>
</defs>
</svg>
