<svg width="1920" height="1080" viewBox="0 0 1920 1080" fill="none" xmlns="http://www.w3.org/2000/svg">
<g clip-path="url(#clip0)">
<path d="M-172.407 1372C-172.407 1372 -112.407 629.5 280.593 528C673.593 426.5 699.593 679 1028.59 666C1357.59 653 1357.09 532 1488.09 379C1619.09 226 1995.59 262.5 1995.59 262.5L1957.09 1416.5L-172.407 1372Z" fill="#BE1E2D" fill-opacity="0.75"/>
<path d="M-170 1400.31C-170 1400.31 -110 657.808 283 556.308C676 454.808 702 707.308 1031 694.308C1360 681.308 1359.5 560.308 1490.5 407.308C1621.5 254.308 1998 290.808 1998 290.808L1959.5 1444.81L-170 1400.31Z" fill="#BE1E2D" fill-opacity="0.75"/>
<path d="M-170 1448.31C-170 1448.31 -110 705.808 283 604.308C676 502.808 702 755.308 1031 742.308C1360 729.308 1359.5 608.308 1490.5 455.308C1621.5 302.308 1998 338.808 1998 338.808L1959.5 1492.81L-170 1448.31Z" fill="#BE1E2D"/>
</g>
<defs>
<clipPath id="clip0">
<rect width="1920" height="1080" fill="white" transform="matrix(-1 0 0 1 1920 0)"/>
</clipPath>
</defs>
</svg>
