<svg width="1920" height="1080" viewBox="0 0 1920 1080" fill="none" xmlns="http://www.w3.org/2000/svg">
<g clip-path="url(#clip0)">
<path d="M311.863 731.303C193.629 544.343 -346 837.748 -346 837.748L-332.191 1212.44L1356.38 1230C1356.38 1230 1446.41 1043.72 1317.71 957.5C1189.01 871.278 1016.12 866.489 843.235 897.358C670.345 928.227 430.097 918.263 311.863 731.303Z" fill="#2B1EBE" fill-opacity="0.5"/>
<path d="M311.863 756.303C193.629 569.343 -346 862.748 -346 862.748L-332.191 1237.44L1356.38 1255C1356.38 1255 1446.41 1068.72 1317.71 982.5C1189.01 896.278 1016.12 891.489 843.235 922.358C670.345 953.227 430.097 943.263 311.863 756.303Z" fill="#2B1EBE"/>
<path d="M418 236C132.5 126 43 -162 43 -162H2076L2161.5 727.5C2161.5 727.5 1978 727.5 1738.5 650.5C1499 573.5 1464 375.5 1130.5 292C797 208.5 703.5 346 418 236Z" fill="#2B1EBE" fill-opacity="0.5"/>
<path d="M443 221.5C157.5 111.5 68 -176.5 68 -176.5H2101L2186.5 713C2186.5 713 2003 713 1763.5 636C1524 559 1489 361 1155.5 277.5C822 194 728.5 331.5 443 221.5Z" fill="#2B1EBE"/>
</g>
<defs>
<clipPath id="clip0">
<rect width="1920" height="1080" fill="white" transform="matrix(-1 0 0 1 1920 0)"/>
</clipPath>
</defs>
</svg>
