<svg width="1920" height="1080" viewBox="0 0 1920 1080" fill="none" xmlns="http://www.w3.org/2000/svg">
<g clip-path="url(#clip0)">
<path d="M6.5349 1076C65.0356 1327 140.034 1319 140.034 1319L2298.04 1426L2247.54 521.5L2116.04 406C2116.04 406 2134.04 590 1943.54 499C1753.04 408 1626.04 349 1466.04 349C1306.04 349 1148.04 353.5 968.035 394C788.035 434.5 561.035 499 429.535 568C298.035 637 -51.9658 825 6.5349 1076Z" fill="#BE1E2D" fill-opacity="0.5"/>
<path d="M6.5349 1102C65.0356 1353 140.034 1345 140.034 1345L2298.04 1452L2247.54 547.5L2116.04 432C2116.04 432 2134.04 616 1943.54 525C1753.04 434 1626.04 375 1466.04 375C1306.04 375 1148.04 379.5 968.035 420C788.035 460.5 561.035 525 429.535 594C298.035 663 -51.9658 851 6.5349 1102Z" fill="#BE1E2D" fill-opacity="0.75"/>
<path d="M6.5349 1128C65.0356 1379 140.034 1371 140.034 1371L2298.04 1478L2247.54 573.5L2116.04 458C2116.04 458 2134.04 642 1943.54 551C1753.04 460 1626.04 401 1466.04 401C1306.04 401 1148.04 405.5 968.035 446C788.035 486.5 561.035 551 429.535 620C298.035 689 -51.9658 877 6.5349 1128Z" fill="#BE1E2D"/>
</g>
<defs>
<clipPath id="clip0">
<rect width="1920" height="1080" fill="white" transform="matrix(-1 0 0 1 1920 0)"/>
</clipPath>
</defs>
</svg>
